<svg xmlns="http://www.w3.org/2000/svg" width="340" height="170"><path d="M180,96L188,77L160,92Z" fill="#fcfeba" stroke="#fcfeba" stroke-width="1.51"/><path d="M188,77L160,71L160,92Z" fill="#fffcba" stroke="#fffcba" stroke-width="1.51"/><path d="M180,96L205,94L188,77Z" fill="#f7fcb3" stroke="#f7fcb3" stroke-width="1.51"/><path d="M188,77L185,40L160,71Z" fill="#fdf1a6" stroke="#fdf1a6" stroke-width="1.51"/><path d="M216,66L185,40L188,77Z" fill="#f7ef9d" stroke="#f7ef9d" stroke-width="1.51"/><path d="M160,92L181,127L180,96Z" fill="#f5fbb0" stroke="#f5fbb0" stroke-width="1.51"/><path d="M180,96L181,127L205,94Z" fill="#f1faa9" stroke="#f1faa9" stroke-width="1.51"/><path d="M128,73L134,103L160,92Z" fill="#fdf4ab" stroke="#fdf4ab" stroke-width="1.51"/><path d="M128,73L160,92L160,71Z" fill="#fff4ad" stroke="#fff4ad" stroke-width="1.51"/><path d="M185,40L151,43L160,71Z" fill="#ffe99e" stroke="#ffe99e" stroke-width="1.51"/><path d="M151,43L128,73L160,71Z" fill="#ffea9c" stroke="#ffea9c" stroke-width="1.51"/><path d="M151,131L181,127L160,92Z" fill="#eff7a9" stroke="#eff7a9" stroke-width="1.51"/><path d="M205,94L216,66L188,77Z" fill="#f6f8ab" stroke="#f6f8ab" stroke-width="1.51"/><path d="M134,103L151,131L160,92Z" fill="#f5f4a2" stroke="#f5f4a2" stroke-width="1.51"/><path d="M151,43L125,51L128,73Z" fill="#ffe290" stroke="#ffe290" stroke-width="1.51"/><path d="M216,66L217,45L185,40Z" fill="#f5e690" stroke="#f5e690" stroke-width="1.51"/><path d="M216,66L235,51L217,45Z" fill="#eee690" stroke="#eee690" stroke-width="1.51"/><path d="M205,94L237,80L216,66Z" fill="#f0f6a8" stroke="#f0f6a8" stroke-width="1.51"/><path d="M238,100L237,80L205,94Z" fill="#e8f6a8" stroke="#e8f6a8" stroke-width="1.51"/><path d="M134,103L120,120L151,131Z" fill="#eeec98" stroke="#eeec98" stroke-width="1.51"/><path d="M106,100L120,120L134,103Z" fill="#f5e992" stroke="#f5e992" stroke-width="1.51"/><path d="M106,100L134,103L128,73Z" fill="#fced9f" stroke="#fced9f" stroke-width="1.51"/><path d="M151,131L161,146L181,127Z" fill="#dcefac" stroke="#dcefac" stroke-width="1.51"/><path d="M216,135L238,100L205,94Z" fill="#e5f49b" stroke="#e5f49b" stroke-width="1.51"/><path d="M121,145L161,146L151,131Z" fill="#d7e5a3" stroke="#d7e5a3" stroke-width="1.51"/><path d="M151,43L132,19L125,51Z" fill="#ffd382" stroke="#ffd382" stroke-width="1.51"/><path d="M185,40L160,16L151,43Z" fill="#ffd990" stroke="#ffd990" stroke-width="1.51"/><path d="M185,11L160,16L185,40Z" fill="#ffcf89" stroke="#ffcf89" stroke-width="1.51"/><path d="M216,135L205,94L181,127Z" fill="#e5f49f" stroke="#e5f49f" stroke-width="1.51"/><path d="M192,149L216,135L181,127Z" fill="#d2eda5" stroke="#d2eda5" stroke-width="1.51"/><path d="M95,78L106,100L128,73Z" fill="#ffe69c" stroke="#ffe69c" stroke-width="1.51"/><path d="M210,19L185,11L185,40Z" fill="#fbce82" stroke="#fbce82" stroke-width="1.51"/><path d="M237,80L235,51L216,66Z" fill="#eaec9b" stroke="#eaec9b" stroke-width="1.51"/><path d="M161,146L192,149L181,127Z" fill="#d4edae" stroke="#d4edae" stroke-width="1.51"/><path d="M210,19L185,40L217,45Z" fill="#f7d885" stroke="#f7d885" stroke-width="1.51"/><path d="M230,21L210,19L217,45Z" fill="#f2d07c" stroke="#f2d07c" stroke-width="1.51"/><path d="M160,16L132,19L151,43Z" fill="#ffcb81" stroke="#ffcb81" stroke-width="1.51"/><path d="M100,47L95,78L128,73Z" fill="#ffdb8b" stroke="#ffdb8b" stroke-width="1.51"/><path d="M148,-19L132,19L160,16Z" fill="#ffb574" stroke="#ffb574" stroke-width="1.51"/><path d="M120,120L121,145L151,131Z" fill="#e0e599" stroke="#e0e599" stroke-width="1.51"/><path d="M106,100L105,118L120,120Z" fill="#f3e28a" stroke="#f3e28a" stroke-width="1.51"/><path d="M100,47L128,73L125,51Z" fill="#fedc87" stroke="#fedc87" stroke-width="1.51"/><path d="M106,100L67,107L105,118Z" fill="#f6da85" stroke="#f6da85" stroke-width="1.51"/><path d="M132,19L100,47L125,51Z" fill="#fecd7a" stroke="#fecd7a" stroke-width="1.51"/><path d="M105,118L121,145L120,120Z" fill="#e5df91" stroke="#e5df91" stroke-width="1.51"/><path d="M183,174L208,164L192,149Z" fill="#b8e1a8" stroke="#b8e1a8" stroke-width="1.51"/><path d="M235,51L230,21L217,45Z" fill="#ecd886" stroke="#ecd886" stroke-width="1.51"/><path d="M215,-7L175,-8L185,11Z" fill="#f9b476" stroke="#f9b476" stroke-width="1.51"/><path d="M185,11L175,-8L160,16Z" fill="#ffbd80" stroke="#ffbd80" stroke-width="1.51"/><path d="M215,-7L185,11L210,19Z" fill="#f7bd75" stroke="#f7bd75" stroke-width="1.51"/><path d="M192,149L208,164L216,135Z" fill="#c3e6a2" stroke="#c3e6a2" stroke-width="1.51"/><path d="M216,135L244,136L238,100Z" fill="#d0eb9d" stroke="#d0eb9d" stroke-width="1.51"/><path d="M183,174L192,149L161,146Z" fill="#c3e6ae" stroke="#c3e6ae" stroke-width="1.51"/><path d="M236,150L244,136L216,135Z" fill="#bee5a1" stroke="#bee5a1" stroke-width="1.51"/><path d="M273,89L270,76L237,80Z" fill="#d5ecae" stroke="#d5ecae" stroke-width="1.51"/><path d="M237,80L270,76L235,51Z" fill="#dee9a1" stroke="#dee9a1" stroke-width="1.51"/><path d="M148,184L183,174L161,146Z" fill="#b9dfaf" stroke="#b9dfaf" stroke-width="1.51"/><path d="M208,164L236,150L216,135Z" fill="#bce39f" stroke="#bce39f" stroke-width="1.51"/><path d="M273,89L237,80L238,100Z" fill="#daf0ad" stroke="#daf0ad" stroke-width="1.51"/><path d="M235,51L273,22L230,21Z" fill="#e2cc82" stroke="#e2cc82" stroke-width="1.51"/><path d="M230,21L215,-7L210,19Z" fill="#f2be72" stroke="#f2be72" stroke-width="1.51"/><path d="M235,-13L215,-7L230,21Z" fill="#edb16d" stroke="#edb16d" stroke-width="1.51"/><path d="M100,47L76,42L95,78Z" fill="#fecc79" stroke="#fecc79" stroke-width="1.51"/><path d="M132,19L96,17L100,47Z" fill="#febd6d" stroke="#febd6d" stroke-width="1.51"/><path d="M101,-12L96,17L132,19Z" fill="#fca862" stroke="#fca862" stroke-width="1.51"/><path d="M270,129L273,89L238,100Z" fill="#cceba3" stroke="#cceba3" stroke-width="1.51"/><path d="M270,129L238,100L244,136Z" fill="#c6e89f" stroke="#c6e89f" stroke-width="1.51"/><path d="M175,-8L148,-19L160,16Z" fill="#fdb27b" stroke="#fdb27b" stroke-width="1.51"/><path d="M147,-39L148,-19L175,-8Z" fill="#f3a37c" stroke="#f3a37c" stroke-width="1.51"/><path d="M121,145L124,174L161,146Z" fill="#c9db9e" stroke="#c9db9e" stroke-width="1.51"/><path d="M105,118L105,161L121,145Z" fill="#d8d791" stroke="#d8d791" stroke-width="1.51"/><path d="M80,157L105,161L105,118Z" fill="#d5ce8a" stroke="#d5ce8a" stroke-width="1.51"/><path d="M96,17L76,42L100,47Z" fill="#feba6a" stroke="#feba6a" stroke-width="1.51"/><path d="M95,78L67,107L106,100Z" fill="#fcda8d" stroke="#fcda8d" stroke-width="1.51"/><path d="M105,161L124,174L121,145Z" fill="#c5d295" stroke="#c5d295" stroke-width="1.51"/><path d="M124,174L148,184L161,146Z" fill="#bbd8a3" stroke="#bbd8a3" stroke-width="1.51"/><path d="M148,-19L130,-16L132,19Z" fill="#faa86d" stroke="#faa86d" stroke-width="1.51"/><path d="M261,152L270,129L244,136Z" fill="#aedea4" stroke="#aedea4" stroke-width="1.51"/><path d="M64,77L67,107L95,78Z" fill="#ffd38c" stroke="#ffd38c" stroke-width="1.51"/><path d="M76,42L64,77L95,78Z" fill="#ffcb7d" stroke="#ffcb7d" stroke-width="1.51"/><path d="M270,76L274,42L235,51Z" fill="#d7de97" stroke="#d7de97" stroke-width="1.51"/><path d="M303,79L274,42L270,76Z" fill="#c8dda0" stroke="#c8dda0" stroke-width="1.51"/><path d="M236,150L261,152L244,136Z" fill="#aedea3" stroke="#aedea3" stroke-width="1.51"/><path d="M238,189L261,152L236,150Z" fill="#9cd6a3" stroke="#9cd6a3" stroke-width="1.51"/><path d="M238,189L236,150L208,164Z" fill="#a4d8a1" stroke="#a4d8a1" stroke-width="1.51"/><path d="M215,188L208,164L183,174Z" fill="#acd6a8" stroke="#acd6a8" stroke-width="1.51"/><path d="M215,-7L203,-36L175,-8Z" fill="#efa977" stroke="#efa977" stroke-width="1.51"/><path d="M267,-4L235,-13L230,21Z" fill="#e3ae70" stroke="#e3ae70" stroke-width="1.51"/><path d="M67,107L64,117L105,118Z" fill="#f4d17c" stroke="#f4d17c" stroke-width="1.51"/><path d="M48,100L64,117L67,107Z" fill="#f7c578" stroke="#f7c578" stroke-width="1.51"/><path d="M180,219L215,188L183,174Z" fill="#a4c3b5" stroke="#a4c3b5" stroke-width="1.51"/><path d="M274,42L273,22L235,51Z" fill="#d9ce8a" stroke="#d9ce8a" stroke-width="1.51"/><path d="M120,-51L101,-12L130,-16Z" fill="#ed9068" stroke="#ed9068" stroke-width="1.51"/><path d="M130,-16L101,-12L132,19Z" fill="#faa365" stroke="#faa365" stroke-width="1.51"/><path d="M96,17L70,10L76,42Z" fill="#fda85d" stroke="#fda85d" stroke-width="1.51"/><path d="M273,89L290,93L270,76Z" fill="#c9e9b1" stroke="#c9e9b1" stroke-width="1.51"/><path d="M274,42L298,36L273,22Z" fill="#cdc486" stroke="#cdc486" stroke-width="1.51"/><path d="M270,129L290,93L273,89Z" fill="#c1e5a5" stroke="#c1e5a5" stroke-width="1.51"/><path d="M303,79L290,93L305,118Z" fill="#b6e0aa" stroke="#b6e0aa" stroke-width="1.51"/><path d="M105,161L97,191L124,174Z" fill="#b9c294" stroke="#b9c294" stroke-width="1.51"/><path d="M124,174L124,210L148,184Z" fill="#b0bda7" stroke="#b0bda7" stroke-width="1.51"/><path d="M64,117L80,157L105,118Z" fill="#e4cc81" stroke="#e4cc81" stroke-width="1.51"/><path d="M235,-13L203,-36L215,-7Z" fill="#e7a571" stroke="#e7a571" stroke-width="1.51"/><path d="M148,-19L147,-39L130,-16Z" fill="#f09c74" stroke="#f09c74" stroke-width="1.51"/><path d="M188,-43L147,-39L175,-8Z" fill="#eea284" stroke="#eea284" stroke-width="1.51"/><path d="M81,-15L70,10L96,17Z" fill="#fa9354" stroke="#fa9354" stroke-width="1.51"/><path d="M76,42L53,42L64,77Z" fill="#feb96e" stroke="#feb96e" stroke-width="1.51"/><path d="M203,-36L188,-43L175,-8Z" fill="#eaa17c" stroke="#eaa17c" stroke-width="1.51"/><path d="M215,188L238,189L208,164Z" fill="#a2cda6" stroke="#a2cda6" stroke-width="1.51"/><path d="M64,117L48,121L80,157Z" fill="#e3c07a" stroke="#e3c07a" stroke-width="1.51"/><path d="M64,77L48,100L67,107Z" fill="#fdc781" stroke="#fdc781" stroke-width="1.51"/><path d="M41,64L48,100L64,77Z" fill="#ffc080" stroke="#ffc080" stroke-width="1.51"/><path d="M70,10L53,42L76,42Z" fill="#fca65d" stroke="#fca65d" stroke-width="1.51"/><path d="M273,22L267,-4L230,21Z" fill="#ddb778" stroke="#ddb778" stroke-width="1.51"/><path d="M235,-13L233,-51L203,-36Z" fill="#da9972" stroke="#da9972" stroke-width="1.51"/><path d="M287,8L267,-4L273,22Z" fill="#d1ad77" stroke="#d1ad77" stroke-width="1.51"/><path d="M48,100L48,121L64,117Z" fill="#f4c072" stroke="#f4c072" stroke-width="1.51"/><path d="M290,93L303,79L270,76Z" fill="#c3e4b0" stroke="#c3e4b0" stroke-width="1.51"/><path d="M305,118L290,93L270,129Z" fill="#b6e09f" stroke="#b6e09f" stroke-width="1.51"/><path d="M53,42L41,64L64,77Z" fill="#feb66f" stroke="#feb66f" stroke-width="1.51"/><path d="M48,100L12,102L48,121Z" fill="#f6b56f" stroke="#f6b56f" stroke-width="1.51"/><path d="M16,52L41,64L53,42Z" fill="#fca563" stroke="#fca563" stroke-width="1.51"/><path d="M148,184L180,219L183,174Z" fill="#abc6be" stroke="#abc6be" stroke-width="1.51"/><path d="M215,188L244,206L238,189Z" fill="#92bbae" stroke="#92bbae" stroke-width="1.51"/><path d="M80,157L97,191L105,161Z" fill="#bec08b" stroke="#bec08b" stroke-width="1.51"/><path d="M98,205L97,191L80,215Z" fill="#b29a94" stroke="#b29a94" stroke-width="1.51"/><path d="M70,10L35,14L53,42Z" fill="#fa9353" stroke="#fa9353" stroke-width="1.51"/><path d="M101,-12L81,-15L96,17Z" fill="#f89358" stroke="#f89358" stroke-width="1.51"/><path d="M92,-45L81,-15L101,-12Z" fill="#ed825d" stroke="#ed825d" stroke-width="1.51"/><path d="M261,152L290,145L270,129Z" fill="#a0d8a4" stroke="#a0d8a4" stroke-width="1.51"/><path d="M275,191L290,145L261,152Z" fill="#86cda5" stroke="#86cda5" stroke-width="1.51"/><path d="M303,79L298,36L274,42Z" fill="#c4d295" stroke="#c4d295" stroke-width="1.51"/><path d="M298,36L287,8L273,22Z" fill="#cbb87f" stroke="#cbb87f" stroke-width="1.51"/><path d="M97,191L124,210L124,174Z" fill="#b1b3a0" stroke="#b1b3a0" stroke-width="1.51"/><path d="M290,145L305,118L270,129Z" fill="#a3d9a3" stroke="#a3d9a3" stroke-width="1.51"/><path d="M153,218L180,219L148,184Z" fill="#adb3b6" stroke="#adb3b6" stroke-width="1.51"/><path d="M124,210L153,218L148,184Z" fill="#aeb0ad" stroke="#aeb0ad" stroke-width="1.51"/><path d="M147,-39L120,-51L130,-16Z" fill="#e6916e" stroke="#e6916e" stroke-width="1.51"/><path d="M188,-43L120,-51L147,-39Z" fill="#de9176" stroke="#de9176" stroke-width="1.51"/><path d="M238,189L275,191L261,152Z" fill="#88c7a9" stroke="#88c7a9" stroke-width="1.51"/><path d="M211,220L244,206L215,188Z" fill="#9bb2ab" stroke="#9bb2ab" stroke-width="1.51"/><path d="M180,219L211,220L215,188Z" fill="#a6b1ad" stroke="#a6b1ad" stroke-width="1.51"/><path d="M121,245L164,242L153,218Z" fill="#b49ba6" stroke="#b49ba6" stroke-width="1.51"/><path d="M97,191L98,205L124,210Z" fill="#b0a39c" stroke="#b0a39c" stroke-width="1.51"/><path d="M67,183L97,191L80,157Z" fill="#bcb288" stroke="#bcb288" stroke-width="1.51"/><path d="M203,-36L233,-51L188,-43Z" fill="#d79572" stroke="#d79572" stroke-width="1.51"/><path d="M188,-43L233,-51L120,-51Z" fill="#d9937b" stroke="#d9937b" stroke-width="1.51"/><path d="M275,-37L233,-51L235,-13Z" fill="#cc9475" stroke="#cc9475" stroke-width="1.51"/><path d="M275,-37L235,-13L267,-4Z" fill="#d19c76" stroke="#d19c76" stroke-width="1.51"/><path d="M36,164L67,183L80,157Z" fill="#c2ae7d" stroke="#c2ae7d" stroke-width="1.51"/><path d="M287,8L292,-8L267,-4Z" fill="#cda273" stroke="#cda273" stroke-width="1.51"/><path d="M314,23L292,-8L287,8Z" fill="#c5a677" stroke="#c5a677" stroke-width="1.51"/><path d="M305,118L332,91L303,79Z" fill="#b0d8ae" stroke="#b0d8ae" stroke-width="1.51"/><path d="M326,44L314,23L298,36Z" fill="#bdb98b" stroke="#bdb98b" stroke-width="1.51"/><path d="M298,36L314,23L287,8Z" fill="#c3b580" stroke="#c3b580" stroke-width="1.51"/><path d="M316,152L317,121L305,118Z" fill="#95cea6" stroke="#95cea6" stroke-width="1.51"/><path d="M316,152L305,118L290,145Z" fill="#8fd0a4" stroke="#8fd0a4" stroke-width="1.51"/><path d="M244,206L275,191L238,189Z" fill="#82b5b1" stroke="#82b5b1" stroke-width="1.51"/><path d="M120,-51L92,-45L101,-12Z" fill="#e38261" stroke="#e38261" stroke-width="1.51"/><path d="M46,-21L35,14L70,10Z" fill="#f67848" stroke="#f67848" stroke-width="1.51"/><path d="M327,61L298,36L303,79Z" fill="#b9cf9c" stroke="#b9cf9c" stroke-width="1.51"/><path d="M46,-21L70,10L81,-15Z" fill="#f27d4f" stroke="#f27d4f" stroke-width="1.51"/><path d="M332,91L327,61L303,79Z" fill="#b3d1b0" stroke="#b3d1b0" stroke-width="1.51"/><path d="M288,-49L275,-37L292,-8Z" fill="#b98d77" stroke="#b98d77" stroke-width="1.51"/><path d="M292,-8L275,-37L267,-4Z" fill="#c79976" stroke="#c79976" stroke-width="1.51"/><path d="M327,61L326,44L298,36Z" fill="#b9c095" stroke="#b9c095" stroke-width="1.51"/><path d="M244,206L259,214L275,191Z" fill="#80aaaf" stroke="#80aaaf" stroke-width="1.51"/><path d="M233,244L259,214L244,206Z" fill="#939ca5" stroke="#939ca5" stroke-width="1.51"/><path d="M11,71L12,102L48,100Z" fill="#fab27d" stroke="#fab27d" stroke-width="1.51"/><path d="M48,121L36,164L80,157Z" fill="#d5b379" stroke="#d5b379" stroke-width="1.51"/><path d="M35,14L16,52L53,42Z" fill="#fa9556" stroke="#fa9556" stroke-width="1.51"/><path d="M67,183L80,215L97,191Z" fill="#b29c92" stroke="#b29c92" stroke-width="1.51"/><path d="M16,125L36,164L48,121Z" fill="#deab72" stroke="#deab72" stroke-width="1.51"/><path d="M317,121L332,91L305,118Z" fill="#a9d2a6" stroke="#a9d2a6" stroke-width="1.51"/><path d="M327,61L353,43L326,44Z" fill="#b3b59d" stroke="#b3b59d" stroke-width="1.51"/><path d="M302,186L316,152L290,145Z" fill="#73c6a5" stroke="#73c6a5" stroke-width="1.51"/><path d="M317,121L344,106L332,91Z" fill="#a6caad" stroke="#a6caad" stroke-width="1.51"/><path d="M302,186L290,145L275,191Z" fill="#71c1a8" stroke="#71c1a8" stroke-width="1.51"/><path d="M180,219L193,245L211,220Z" fill="#ada1a9" stroke="#ada1a9" stroke-width="1.51"/><path d="M211,220L233,244L244,206Z" fill="#9f9da3" stroke="#9f9da3" stroke-width="1.51"/><path d="M153,218L164,242L180,219Z" fill="#b3a2b1" stroke="#b3a2b1" stroke-width="1.51"/><path d="M121,245L153,218L124,210Z" fill="#b5979f" stroke="#b5979f" stroke-width="1.51"/><path d="M11,71L48,100L41,64Z" fill="#feb47a" stroke="#feb47a" stroke-width="1.51"/><path d="M16,52L11,71L41,64Z" fill="#f9a66d" stroke="#f9a66d" stroke-width="1.51"/><path d="M95,242L121,245L124,210Z" fill="#b58e95" stroke="#b58e95" stroke-width="1.51"/><path d="M51,206L80,215L67,183Z" fill="#b38d8b" stroke="#b38d8b" stroke-width="1.51"/><path d="M12,102L16,125L48,121Z" fill="#eeae6e" stroke="#eeae6e" stroke-width="1.51"/><path d="M35,14L8,8L16,52Z" fill="#f38252" stroke="#f38252" stroke-width="1.51"/><path d="M70,-49L46,-21L81,-15Z" fill="#e76e53" stroke="#e76e53" stroke-width="1.51"/><path d="M36,164L43,182L67,183Z" fill="#bd9d7c" stroke="#bd9d7c" stroke-width="1.51"/><path d="M23,178L43,182L36,164Z" fill="#be9677" stroke="#be9677" stroke-width="1.51"/><path d="M164,242L193,245L180,219Z" fill="#b1a2af" stroke="#b1a2af" stroke-width="1.51"/><path d="M120,-51L70,-49L92,-45Z" fill="#d6725a" stroke="#d6725a" stroke-width="1.51"/><path d="M92,-45L70,-49L81,-15Z" fill="#e17457" stroke="#e17457" stroke-width="1.51"/><path d="M289,210L302,186L275,191Z" fill="#63aab1" stroke="#63aab1" stroke-width="1.51"/><path d="M95,242L124,210L98,205Z" fill="#b49094" stroke="#b49094" stroke-width="1.51"/><path d="M164,242L121,245L193,245Z" fill="#b3a0ad" stroke="#b3a0ad" stroke-width="1.51"/><path d="M259,214L289,210L275,191Z" fill="#75a5ae" stroke="#75a5ae" stroke-width="1.51"/><path d="M193,245L216,248L211,220Z" fill="#ab9fa4" stroke="#ab9fa4" stroke-width="1.51"/><path d="M121,245L216,248L193,245Z" fill="#b1a3b0" stroke="#b1a3b0" stroke-width="1.51"/><path d="M352,130L317,121L316,152Z" fill="#8cc2ab" stroke="#8cc2ab" stroke-width="1.51"/><path d="M352,130L344,106L317,121Z" fill="#9bc2ab" stroke="#9bc2ab" stroke-width="1.51"/><path d="M332,91L356,76L327,61Z" fill="#aec4b5" stroke="#aec4b5" stroke-width="1.51"/><path d="M216,248L233,244L211,220Z" fill="#a59da2" stroke="#a59da2" stroke-width="1.51"/><path d="M289,238L289,210L259,214Z" fill="#7b93a7" stroke="#7b93a7" stroke-width="1.51"/><path d="M43,182L51,206L67,183Z" fill="#b69185" stroke="#b69185" stroke-width="1.51"/><path d="M80,215L95,242L98,205Z" fill="#b6868d" stroke="#b6868d" stroke-width="1.51"/><path d="M8,205L51,206L43,182Z" fill="#b27d81" stroke="#b27d81" stroke-width="1.51"/><path d="M320,-34L288,-49L292,-8Z" fill="#b28977" stroke="#b28977" stroke-width="1.51"/><path d="M275,-37L288,-49L233,-51Z" fill="#b68773" stroke="#b68773" stroke-width="1.51"/><path d="M326,-21L292,-8L314,23Z" fill="#be9776" stroke="#be9776" stroke-width="1.51"/><path d="M7,150L36,164L16,125Z" fill="#d1a074" stroke="#d1a074" stroke-width="1.51"/><path d="M7,150L23,178L36,164Z" fill="#c29a75" stroke="#c29a75" stroke-width="1.51"/><path d="M67,243L95,242L80,215Z" fill="#b67c86" stroke="#b67c86" stroke-width="1.51"/><path d="M-3,145L16,125L-11,129Z" fill="#d79d75" stroke="#d79d75" stroke-width="1.51"/><path d="M-3,145L7,150L16,125Z" fill="#d29e76" stroke="#d29e76" stroke-width="1.51"/><path d="M16,-20L35,14L46,-21Z" fill="#ee6446" stroke="#ee6446" stroke-width="1.51"/><path d="M16,-20L8,8L35,14Z" fill="#ef6546" stroke="#ef6546" stroke-width="1.51"/><path d="M-16,48L-13,71L11,71Z" fill="#ef9a71" stroke="#ef9a71" stroke-width="1.51"/><path d="M11,71L-19,93L12,102Z" fill="#f3a881" stroke="#f3a881" stroke-width="1.51"/><path d="M326,44L360,22L314,23Z" fill="#b6a68e" stroke="#b6a68e" stroke-width="1.51"/><path d="M344,106L356,76L332,91Z" fill="#a8c4bb" stroke="#a8c4bb" stroke-width="1.51"/><path d="M356,76L353,43L327,61Z" fill="#adb7a9" stroke="#adb7a9" stroke-width="1.51"/><path d="M360,-4L326,-21L314,23Z" fill="#b7887d" stroke="#b7887d" stroke-width="1.51"/><path d="M-16,48L11,71L16,52Z" fill="#f29a6a" stroke="#f29a6a" stroke-width="1.51"/><path d="M344,106L373,97L356,76Z" fill="#a8bab8" stroke="#a8bab8" stroke-width="1.51"/><path d="M358,158L352,130L316,152Z" fill="#77b3b0" stroke="#77b3b0" stroke-width="1.51"/><path d="M325,188L316,152L302,186Z" fill="#5fb4ab" stroke="#5fb4ab" stroke-width="1.51"/><path d="M327,220L325,188L302,186Z" fill="#4c9bb5" stroke="#4c9bb5" stroke-width="1.51"/><path d="M-11,129L16,125L12,102Z" fill="#e5a572" stroke="#e5a572" stroke-width="1.51"/><path d="M-11,182L8,205L23,178Z" fill="#ad7b7f" stroke="#ad7b7f" stroke-width="1.51"/><path d="M8,8L-16,48L16,52Z" fill="#ef865b" stroke="#ef865b" stroke-width="1.51"/><path d="M16,-41L16,-20L46,-21Z" fill="#e1514b" stroke="#e1514b" stroke-width="1.51"/><path d="M326,-21L320,-34L292,-8Z" fill="#b3897a" stroke="#b3897a" stroke-width="1.51"/><path d="M70,-49L37,-50L46,-21Z" fill="#da594c" stroke="#da594c" stroke-width="1.51"/><path d="M120,-51L37,-50L70,-49Z" fill="#d36652" stroke="#d36652" stroke-width="1.51"/><path d="M-19,93L-11,129L12,102Z" fill="#e8a375" stroke="#e8a375" stroke-width="1.51"/><path d="M-13,71L-19,93L11,71Z" fill="#f1a17f" stroke="#f1a17f" stroke-width="1.51"/><path d="M-8,8L-16,48L8,8Z" fill="#ea7354" stroke="#ea7354" stroke-width="1.51"/><path d="M-39,77L-19,93L-13,71Z" fill="#e79b7e" stroke="#e79b7e" stroke-width="1.51"/><path d="M95,242L67,243L121,245Z" fill="#b6838c" stroke="#b6838c" stroke-width="1.51"/><path d="M51,206L67,243L80,215Z" fill="#b67682" stroke="#b67682" stroke-width="1.51"/><path d="M44,238L67,243L51,206Z" fill="#b56a7c" stroke="#b56a7c" stroke-width="1.51"/><path d="M44,238L51,206L23,230Z" fill="#b56077" stroke="#b56077" stroke-width="1.51"/><path d="M233,244L275,246L259,214Z" fill="#8d95a5" stroke="#8d95a5" stroke-width="1.51"/><path d="M289,210L327,220L302,186Z" fill="#5b9bae" stroke="#5b9bae" stroke-width="1.51"/><path d="M216,248L275,246L233,244Z" fill="#9799a3" stroke="#9799a3" stroke-width="1.51"/><path d="M-9,-14L-8,8L8,8Z" fill="#e75949" stroke="#e75949" stroke-width="1.51"/><path d="M-9,-14L8,8L16,-20Z" fill="#e4564a" stroke="#e4564a" stroke-width="1.51"/><path d="M275,246L289,238L259,214Z" fill="#8090a5" stroke="#8090a5" stroke-width="1.51"/><path d="M353,43L360,22L326,44Z" fill="#b2a397" stroke="#b2a397" stroke-width="1.51"/><path d="M326,-21L347,-51L320,-34Z" fill="#a1727e" stroke="#a1727e" stroke-width="1.51"/><path d="M372,41L360,22L353,43Z" fill="#b39893" stroke="#b39893" stroke-width="1.51"/><path d="M37,-50L16,-41L46,-21Z" fill="#d94d48" stroke="#d94d48" stroke-width="1.51"/><path d="M354,182L358,158L325,188Z" fill="#4f9fb4" stroke="#4f9fb4" stroke-width="1.51"/><path d="M325,188L358,158L316,152Z" fill="#5fb0ad" stroke="#5fb0ad" stroke-width="1.51"/><path d="M352,130L373,97L344,106Z" fill="#a1b8ad" stroke="#a1b8ad" stroke-width="1.51"/><path d="M377,72L372,41L353,43Z" fill="#b1a29e" stroke="#b1a29e" stroke-width="1.51"/><path d="M387,136L373,97L352,130Z" fill="#9baba9" stroke="#9baba9" stroke-width="1.51"/><path d="M8,205L43,182L23,178Z" fill="#b3837e" stroke="#b3837e" stroke-width="1.51"/><path d="M377,72L353,43L356,76Z" fill="#afada9" stroke="#afada9" stroke-width="1.51"/><path d="M373,97L377,72L356,76Z" fill="#aeb2b7" stroke="#aeb2b7" stroke-width="1.51"/><path d="M16,-41L-9,-14L16,-20Z" fill="#dc4a4d" stroke="#dc4a4d" stroke-width="1.51"/><path d="M-8,8L-30,48L-16,48Z" fill="#e67b5b" stroke="#e67b5b" stroke-width="1.51"/><path d="M-16,48L-30,48L-13,71Z" fill="#e78f6a" stroke="#e78f6a" stroke-width="1.51"/><path d="M-45,154L-3,145L-11,129Z" fill="#c49176" stroke="#c49176" stroke-width="1.51"/><path d="M-40,9L-30,48L-8,8Z" fill="#de6a52" stroke="#de6a52" stroke-width="1.51"/><path d="M-11,182L7,150L-3,145Z" fill="#be9278" stroke="#be9278" stroke-width="1.51"/><path d="M-11,182L23,178L7,150Z" fill="#b79077" stroke="#b79077" stroke-width="1.51"/><path d="M378,11L360,-4L360,22Z" fill="#b47b82" stroke="#b47b82" stroke-width="1.51"/><path d="M360,22L360,-4L314,23Z" fill="#b48f87" stroke="#b48f87" stroke-width="1.51"/><path d="M316,248L327,220L289,238Z" fill="#6785a6" stroke="#6785a6" stroke-width="1.51"/><path d="M289,238L327,220L289,210Z" fill="#6b8ca6" stroke="#6b8ca6" stroke-width="1.51"/><path d="M351,205L354,182L325,188Z" fill="#3f91ba" stroke="#3f91ba" stroke-width="1.51"/><path d="M358,158L387,136L352,130Z" fill="#81a7ad" stroke="#81a7ad" stroke-width="1.51"/><path d="M-44,118L-11,129L-19,93Z" fill="#db9970" stroke="#db9970" stroke-width="1.51"/><path d="M-45,154L-11,182L-3,145Z" fill="#b48977" stroke="#b48977" stroke-width="1.51"/><path d="M-15,209L23,230L8,205Z" fill="#a95d7c" stroke="#a95d7c" stroke-width="1.51"/><path d="M8,205L23,230L51,206Z" fill="#b1677b" stroke="#b1677b" stroke-width="1.51"/><path d="M-30,48L-39,77L-13,71Z" fill="#e39071" stroke="#e39071" stroke-width="1.51"/><path d="M-39,77L-39,93L-19,93Z" fill="#e1997f" stroke="#e1997f" stroke-width="1.51"/><path d="M327,220L351,205L325,188Z" fill="#498ab6" stroke="#498ab6" stroke-width="1.51"/><path d="M354,182L378,160L358,158Z" fill="#609cad" stroke="#609cad" stroke-width="1.51"/><path d="M372,41L378,11L360,22Z" fill="#b48889" stroke="#b48889" stroke-width="1.51"/><path d="M399,39L378,11L372,41Z" fill="#b5848a" stroke="#b5848a" stroke-width="1.51"/><path d="M360,-4L347,-51L326,-21Z" fill="#a57083" stroke="#a57083" stroke-width="1.51"/><path d="M378,11L372,-6L360,-4Z" fill="#b36e7b" stroke="#b36e7b" stroke-width="1.51"/><path d="M374,-43L347,-51L360,-4Z" fill="#9e5f80" stroke="#9e5f80" stroke-width="1.51"/><path d="M320,-34L347,-51L288,-49Z" fill="#9c7478" stroke="#9c7478" stroke-width="1.51"/><path d="M288,-49L347,-51L233,-51Z" fill="#a47e72" stroke="#a47e72" stroke-width="1.51"/><path d="M-39,93L-44,118L-19,93Z" fill="#da9676" stroke="#da9676" stroke-width="1.51"/><path d="M-39,77L-44,118L-39,93Z" fill="#d89479" stroke="#d89479" stroke-width="1.51"/><path d="M327,220L342,235L351,205Z" fill="#5277b0" stroke="#5277b0" stroke-width="1.51"/><path d="M275,246L316,248L289,238Z" fill="#728ca5" stroke="#728ca5" stroke-width="1.51"/><path d="M216,248L316,248L275,246Z" fill="#8492a5" stroke="#8492a5" stroke-width="1.51"/><path d="M373,97L402,99L377,72Z" fill="#afa9b3" stroke="#afa9b3" stroke-width="1.51"/><path d="M403,61L399,39L372,41Z" fill="#b58d94" stroke="#b58d94" stroke-width="1.51"/><path d="M380,183L378,160L354,182Z" fill="#5b91ae" stroke="#5b91ae" stroke-width="1.51"/><path d="M378,160L387,136L358,158Z" fill="#789dab" stroke="#789dab" stroke-width="1.51"/><path d="M-39,77L-50,-19L-44,118Z" fill="#d88569" stroke="#d88569" stroke-width="1.51"/><path d="M-30,48L-40,9L-39,77Z" fill="#db7d5f" stroke="#db7d5f" stroke-width="1.51"/><path d="M-9,-14L-40,9L-8,8Z" fill="#df5248" stroke="#df5248" stroke-width="1.51"/><path d="M-50,-19L-40,9L-9,-14Z" fill="#d04449" stroke="#d04449" stroke-width="1.51"/><path d="M16,-41L-16,-43L-9,-14Z" fill="#d13d4d" stroke="#d13d4d" stroke-width="1.51"/><path d="M37,-50L-16,-43L16,-41Z" fill="#cb3c49" stroke="#cb3c49" stroke-width="1.51"/><path d="M-11,182L-15,209L8,205Z" fill="#a46b83" stroke="#a46b83" stroke-width="1.51"/><path d="M-39,178L-15,209L-11,182Z" fill="#9f6e7f" stroke="#9f6e7f" stroke-width="1.51"/><path d="M377,210L380,183L354,182Z" fill="#4a81b5" stroke="#4a81b5" stroke-width="1.51"/><path d="M316,248L342,235L327,220Z" fill="#5d79ab" stroke="#5d79ab" stroke-width="1.51"/><path d="M-44,118L-45,154L-11,129Z" fill="#c38e73" stroke="#c38e73" stroke-width="1.51"/><path d="M410,135L402,99L387,136Z" fill="#9e9ba3" stroke="#9e9ba3" stroke-width="1.51"/><path d="M387,136L402,99L373,97Z" fill="#a8a4a4" stroke="#a8a4a4" stroke-width="1.51"/><path d="M405,-17L374,-43L372,-6Z" fill="#a7557b" stroke="#a7557b" stroke-width="1.51"/><path d="M372,-6L374,-43L360,-4Z" fill="#a9637e" stroke="#a9637e" stroke-width="1.51"/><path d="M403,61L372,41L377,72Z" fill="#b39b9e" stroke="#b39b9e" stroke-width="1.51"/><path d="M377,210L354,182L351,205Z" fill="#3f7fb8" stroke="#3f7fb8" stroke-width="1.51"/><path d="M378,160L400,153L387,136Z" fill="#7f94a6" stroke="#7f94a6" stroke-width="1.51"/><path d="M402,99L403,61L377,72Z" fill="#b39fac" stroke="#b39fac" stroke-width="1.51"/><path d="M-45,154L-39,178L-11,182Z" fill="#a37e76" stroke="#a37e76" stroke-width="1.51"/><path d="M405,-17L372,-6L378,11Z" fill="#b16078" stroke="#b16078" stroke-width="1.51"/><path d="M399,39L402,20L378,11Z" fill="#b67683" stroke="#b67683" stroke-width="1.51"/><path d="M403,61L402,20L399,39Z" fill="#b6858e" stroke="#b6858e" stroke-width="1.51"/><path d="M380,183L400,153L378,160Z" fill="#6b8fa7" stroke="#6b8fa7" stroke-width="1.51"/><path d="M-16,-43L-33,-40L-9,-14Z" fill="#c9344c" stroke="#c9344c" stroke-width="1.51"/><path d="M380,183L405,185L400,153Z" fill="#6684a6" stroke="#6684a6" stroke-width="1.51"/><path d="M379,234L377,210L351,205Z" fill="#5368ad" stroke="#5368ad" stroke-width="1.51"/><path d="M400,153L410,135L387,136Z" fill="#8a94a5" stroke="#8a94a5" stroke-width="1.51"/><path d="M402,99L410,135L403,61Z" fill="#aea1aa" stroke="#aea1aa" stroke-width="1.51"/><path d="M403,61L405,-17L402,20Z" fill="#b67381" stroke="#b67381" stroke-width="1.51"/><path d="M405,185L410,135L400,153Z" fill="#778da5" stroke="#778da5" stroke-width="1.51"/><path d="M-33,-40L-50,-19L-9,-14Z" fill="#c9364c" stroke="#c9364c" stroke-width="1.51"/><path d="M-40,9L-50,-19L-39,77Z" fill="#d46251" stroke="#d46251" stroke-width="1.51"/><path d="M-44,118L-50,-19L-45,154Z" fill="#d9927e" stroke="#d9927e" stroke-width="1.51"/><path d="M-47,210L-20,239L-15,209Z" fill="#994878" stroke="#994878" stroke-width="1.51"/><path d="M-15,209L-20,239L23,230Z" fill="#a64b78" stroke="#a64b78" stroke-width="1.51"/><path d="M23,230L-20,239L44,238Z" fill="#ad5477" stroke="#ad5477" stroke-width="1.51"/><path d="M44,238L-20,239L67,243Z" fill="#b25a76" stroke="#b25a76" stroke-width="1.51"/><path d="M408,-41L405,-17L403,61Z" fill="#b55d75" stroke="#b55d75" stroke-width="1.51"/><path d="M402,20L405,-17L378,11Z" fill="#b56178" stroke="#b56178" stroke-width="1.51"/><path d="M-39,178L-47,210L-15,209Z" fill="#945e7f" stroke="#945e7f" stroke-width="1.51"/><path d="M-45,154L-47,210L-39,178Z" fill="#976e78" stroke="#976e78" stroke-width="1.51"/><path d="M-50,-19L-47,210L-45,154Z" fill="#cb8e6d" stroke="#cb8e6d" stroke-width="1.51"/><path d="M401,213L405,185L380,183Z" fill="#5470ae" stroke="#5470ae" stroke-width="1.51"/><path d="M377,210L401,213L380,183Z" fill="#506caf" stroke="#506caf" stroke-width="1.51"/><path d="M342,235L379,234L351,205Z" fill="#5368ad" stroke="#5368ad" stroke-width="1.51"/><path d="M399,246L379,234L342,235Z" fill="#595da8" stroke="#595da8" stroke-width="1.51"/><path d="M379,234L401,213L377,210Z" fill="#5a5ba7" stroke="#5a5ba7" stroke-width="1.51"/><path d="M405,-17L408,-41L374,-43Z" fill="#9e4477" stroke="#9e4477" stroke-width="1.51"/><path d="M374,-43L408,-41L347,-51Z" fill="#924b78" stroke="#924b78" stroke-width="1.51"/><path d="M410,135L408,-41L403,61Z" fill="#b59097" stroke="#b59097" stroke-width="1.51"/><path d="M-47,210L-44,241L-20,239Z" fill="#933d74" stroke="#933d74" stroke-width="1.51"/><path d="M-20,239L-44,241L67,243Z" fill="#a84d78" stroke="#a84d78" stroke-width="1.51"/><path d="M67,243L-44,241L121,245Z" fill="#b5667a" stroke="#b5667a" stroke-width="1.51"/><path d="M121,245L-44,241L216,248Z" fill="#b6858e" stroke="#b6858e" stroke-width="1.51"/><path d="M379,234L399,246L401,213Z" fill="#5e50a2" stroke="#5e50a2" stroke-width="1.51"/><path d="M401,213L399,246L405,185Z" fill="#5a5aa7" stroke="#5a5aa7" stroke-width="1.51"/><path d="M405,185L399,246L410,135Z" fill="#5975ac" stroke="#5975ac" stroke-width="1.51"/><path d="M316,248L399,246L342,235Z" fill="#516aae" stroke="#516aae" stroke-width="1.51"/></svg>