<svg width="64" height="80" viewBox="0 0 64 80" fill="none" xmlns="http://www.w3.org/2000/svg">
<rect width="64" height="80" fill="white"/>
<g clip-path="url(#clip0)">
<path d="M55.3181 2.74417C44.9705 -1.03931 32.9989 1.32547 24.7227 9.90807C23.3279 11.3546 22.1183 12.9172 21.0637 14.555C16.1582 14.9402 11.3558 17.0614 7.60432 20.9518C5.56978 23.0617 4.04034 25.4947 3 28.0886C7.26893 26.2471 11.9957 25.9129 16.4336 27.0722C15.7596 31.9418 16.2213 36.9498 17.8147 41.6365C22.3342 43.289 27.1632 43.7677 31.859 43.0688C32.9769 47.6712 32.6545 52.573 30.8788 57C33.3802 55.9211 35.7262 54.335 37.7607 52.2252C41.5122 48.3347 43.5577 43.3544 43.9291 38.2673C45.5084 37.1737 47.0152 35.9192 48.41 34.4726C56.6862 25.89 58.9665 13.4751 55.3181 2.74417ZM46.3799 22.6442C43.5492 25.5799 38.9595 25.5799 36.1287 22.6442C33.298 19.7086 33.298 14.949 36.1287 12.0134C38.9595 9.07779 43.5492 9.07779 46.3799 12.0134C49.2107 14.949 49.2107 19.7086 46.3799 22.6442Z" fill="black"/>
</g>
<defs>
<clipPath id="clip0">
<rect width="64" height="80" fill="white"/>
</clipPath>
</defs>
</svg>
